Coordinates
version=1
nRows=54
nColumns=12
inDegrees=yes

Units are S.I. units (second, meters, Newtons, ...)
Angles are in degrees

endheader
time	SC_y	SC_z	SC_x	AC_y	AC_z	AC_x	GH_y	GH_z	GH_yy	EL_x	PS_y
       0.0              -37.18          11.93          81.35          61.82         -17.34         -8.589          121.5          14.95          35.44          25.61          112.7
   0.03706              -37.18          11.93          81.34          61.82         -17.34         -8.591          121.5          14.95          35.43          25.62          112.6
   0.07411              -37.18          11.94          81.34          61.82         -17.34         -8.592          121.5          14.95          35.42          25.64          112.6
    0.1112              -37.18          11.94          81.33          61.82         -17.33         -8.594          121.4          14.95           35.4          25.66          112.6
    0.1482              -37.19          11.94          81.32          61.82         -17.33         -8.595          121.4          14.95          35.39          25.68          112.6
    0.1853              -37.19          11.95          81.31          61.82         -17.32         -8.597          121.3          14.94          35.37           25.7          112.6
    0.2223              -37.19          11.95           81.3          61.82         -17.32         -8.599          121.2          14.94          35.35          25.72          112.6
    0.2594               -37.2          11.95          81.29          61.82         -17.31         -8.601          121.2          14.94          35.33          25.74          112.6
    0.2964               -37.2          11.96          81.28          61.82         -17.31         -8.603          121.1          14.94          35.31          25.77          112.6
    0.3335              -37.21          11.96          81.27          61.81          -17.3         -8.605          121.0          14.93          35.29           25.8          112.6
    0.3706              -37.21          11.97          81.26          61.81          -17.3         -8.608          121.0          14.93          35.27          25.83          112.6
    0.4076              -37.21          11.97          81.25          61.81         -17.29          -8.61          120.9          14.93          35.25          25.86          112.6
    0.4447              -37.22          11.98          81.23          61.81         -17.28         -8.613          120.8          14.92          35.22          25.89          112.5
    0.4817              -37.22          11.98          81.22          61.81         -17.28         -8.616          120.7          14.92          35.19          25.93          112.5
    0.5188              -37.23          11.99           81.2          61.81         -17.27          -8.62          120.6          14.91          35.16          25.97          112.5
    0.5558              -37.24          11.99          81.18           61.8         -17.26         -8.623          120.5          14.91          35.13          26.01          112.5
    0.5929              -37.24           12.0          81.17           61.8         -17.25         -8.627          120.4           14.9          35.09          26.06          112.5
      0.63              -37.25          12.01          81.15           61.8         -17.24         -8.632          120.2           14.9          35.05          26.11          112.5
     0.667              -37.26          12.02          81.12           61.8         -17.23         -8.636          120.1          14.89          35.01          26.16          112.4
    0.7041              -37.27          12.03           81.1          61.79         -17.22         -8.641          119.9          14.88          34.96          26.22          112.4
    0.7411              -37.28          12.04          81.07          61.79          -17.2         -8.647          119.8          14.87           34.9          26.29          112.4
    0.7782              -37.29          12.05          81.04          61.79         -17.19         -8.653          119.6          14.87          34.85          26.37          112.4
    0.8152               -37.3          12.06          81.01          61.78         -17.17          -8.66          119.4          14.86          34.78          26.45          112.3
    0.8523              -37.31          12.07          80.97          61.78         -17.15         -8.668          119.1          14.85          34.71          26.54          112.3
    0.8893              -37.33          12.09          80.93          61.77         -17.13         -8.676          118.9          14.84          34.63          26.64          112.3
    0.9264              -37.34           12.1          80.89          61.77         -17.11         -8.686          118.6          14.82          34.55          26.75          112.2
    0.9635              -37.36          12.12          80.83          61.76         -17.08         -8.696          118.3          14.81          34.45          26.87          112.2
     1.001              -37.38          12.15          80.78          61.75         -17.05         -8.708          117.9          14.79          34.34          27.02          112.1
     1.038              -37.41          12.17          80.71          61.74         -17.02         -8.721          117.5          14.77          34.21          27.17          112.0
     1.075              -37.43           12.2          80.64          61.74         -16.98         -8.737          117.0          14.75          34.07          27.36          112.0
     1.112              -37.46          12.23          80.56          61.73         -16.94         -8.754          116.5          14.73          33.91          27.56          111.9
     1.149               -37.5          12.26          80.46          61.71         -16.89         -8.774          115.9           14.7          33.72           27.8          111.8
     1.186              -37.54           12.3          80.35           61.7         -16.83         -8.797          115.2          14.67          33.51          28.07          111.7
     1.223              -37.58          12.35          80.22          61.68         -16.77         -8.824          114.4          14.63          33.26          28.39          111.6
      1.26              -37.64          12.41          80.07          61.67         -16.69         -8.855          113.4          14.59          32.97          28.76          111.4
     1.297               -37.7          12.47          79.89          61.64          -16.6         -8.892          112.3          14.54          32.63           29.2          111.3
     1.334              -37.78          12.55          79.68          61.62         -16.49         -8.936          110.9          14.48          32.22          29.72          111.1
     1.371              -37.87          12.65          79.43          61.59         -16.37         -8.989          109.3          14.41          31.73          30.35          110.8
     1.408              -37.98          12.76          79.12          61.55         -16.21         -9.052          107.4          14.32          31.14           31.1          110.5
     1.445              -38.11           12.9          78.75           61.5         -16.02          -9.13          105.0          14.21          30.41          32.02          110.2
     1.482              -38.28          13.07          78.29          61.45         -15.79         -9.226          102.1          14.08          29.52          33.16          109.7
     1.519              -38.48          13.29          77.71          61.37         -15.49         -9.346          98.41          13.92          28.41          34.58          109.2
     1.556              -38.74          13.56          76.99          61.29         -15.12         -9.496           93.8          13.71          27.01          36.37          108.5
     1.593              -39.08           13.9          76.07          61.17         -14.65         -9.688          87.94          13.45          25.22          38.65          107.6
      1.63               -39.5          14.34          74.89          61.03         -14.05         -9.933          80.43          13.11          22.94          41.56          106.5
     1.668              -40.04           14.9          73.37          60.84         -13.28         -10.25          70.81          12.68          20.02          45.29          105.0
     1.705              -40.74          15.63          71.44           60.6          -12.3         -10.65          58.51          12.13          16.28          50.07          103.2
     1.742              -41.61          16.53          69.01           60.3         -11.06         -11.16          43.05          11.44          11.57          56.07          100.9
     1.779              -42.68          17.64          66.05          59.94         -9.556         -11.77          24.21           10.6          5.845          63.38          98.05
     1.816              -43.91          18.92          62.61          59.51         -7.809         -12.49          2.369          9.618        -0.7957          71.85          94.78
     1.853              -45.25           20.3          58.89          59.05         -5.917         -13.26         -21.28          8.559         -7.987          81.03          91.23
      1.89              -46.58          21.69          55.17          58.59         -4.025         -14.03         -44.93          7.501         -15.18          90.21          87.68
     1.927              -47.82          22.97          51.74          58.17         -2.278         -14.75         -66.77          6.523         -21.82          98.68          84.41
     1.964              -48.88          24.07          48.78          57.81        -0.7706         -15.36         -85.61          5.679         -27.55          106.0          81.58
